<svg id="Layer_1" viewBox="0 0 48 48" sodipodi:docname="chrono.svg" inkscape:version="1.2.2 (b0a8486541, 2022-12-01)" width="48" height="48" xmlns:inkscape="http://www.inkscape.org/namespaces/inkscape" xmlns:sodipodi="http://sodipodi.sourceforge.net/DTD/sodipodi-0.dtd" xmlns="http://www.w3.org/2000/svg" xmlns:svg="http://www.w3.org/2000/svg"><defs id="defs8925"/><sodipodi:namedview id="namedview8923" pagecolor="#ffffff" bordercolor="#000000" borderopacity=".25" inkscape:showpageshadow="2" inkscape:pageopacity="0" inkscape:pagecheckerboard="0" inkscape:deskcolor="#d1d1d1" showgrid="true" inkscape:zoom="16.958333" inkscape:cx="23.970516" inkscape:cy="24" inkscape:window-width="1920" inkscape:window-height="1023" inkscape:window-x="0" inkscape:window-y="0" inkscape:window-maximized="1" inkscape:current-layer="Layer_1" inkscape:document-rotation="0"><inkscape:grid type="xygrid" id="grid9044" originx="0" originy="0"/></sodipodi:namedview><path id="path1686" style="color:#000;fill:#000064;-inkscape-stroke:none;fill-opacity:1" d="M19 0A1.5 1.5.0 0017.5 1.5 1.5 1.5.0 0019 3h3.5V7h3V3H29a1.5 1.5.0 001.5-1.5A1.5 1.5.0 0029 0H19z"/><path id="path1701" style="color:#000;fill:#000064;-inkscape-stroke:none;fill-opacity:1" d="m39.414214 4.5147186a1.5 1.5.0 00-2.121321.0 1.5 1.5.0 000 2.1213203l2.474874 2.4748738L36.93934 11.93934l2.12132 2.12132 2.828428-2.828427 2.474873 2.474874a1.5 1.5.0 002.121321.0 1.5 1.5.0 000-2.121321z"/><circle style="fill:#00c37f;fill-opacity:1;stroke:#000064;stroke-width:3;stroke-linecap:round;stroke-linejoin:round;stroke-dasharray:none;stroke-opacity:1" id="path1628" cx="24" cy="26.499998" r="20"/><circle style="fill:#47ffa8;fill-opacity:1;stroke:none;stroke-width:3;stroke-linecap:round;stroke-linejoin:round;stroke-dasharray:none;stroke-opacity:1" id="path9895" cx="24" cy="26.499998" r="15.5"/><path style="fill:#47ffa8;fill-opacity:1;stroke:#000064;stroke-width:3;stroke-linecap:round;stroke-linejoin:round;stroke-dasharray:none;stroke-opacity:1" id="path6789" sodipodi:type="arc" sodipodi:cx="24" sodipodi:cy="26.499998" sodipodi:rx="14" sodipodi:ry="14" sodipodi:start="5.0614548" sodipodi:end="4.3633231" sodipodi:arc-type="arc" d="M28.788282 13.344301a14 14 0 018.999027 15.586771A14 14 0 0124 40.499998 14 14 0 0110.212692 28.931073a14 14 0 018.999026-15.586771" sodipodi:open="true"/><circle style="fill:#fff000;stroke:#000064;stroke-width:2;stroke-linecap:round;stroke-linejoin:round;stroke-dasharray:none;stroke-opacity:1" id="path1690" cx="24" cy="27" r="2"/><path style="fill:none;stroke:#000064;stroke-width:3;stroke-linecap:round;stroke-linejoin:round;stroke-dasharray:none;stroke-opacity:1" d="M24 12.5V27h9" id="path1688" sodipodi:nodetypes="ccc"/></svg>