<svg width="64" height="64" viewBox="0 0 16.933333 16.933333" id="svg5" inkscape:version="1.2.2 (b0a8486541, 2022-12-01)" sodipodi:docname="favicon.svg" xmlns:inkscape="http://www.inkscape.org/namespaces/inkscape" xmlns:sodipodi="http://sodipodi.sourceforge.net/DTD/sodipodi-0.dtd" xmlns="http://www.w3.org/2000/svg" xmlns:svg="http://www.w3.org/2000/svg"><sodipodi:namedview id="namedview7" pagecolor="#ffffff" bordercolor="#000000" borderopacity=".25" inkscape:showpageshadow="2" inkscape:pageopacity="0" inkscape:pagecheckerboard="0" inkscape:deskcolor="#d1d1d1" inkscape:document-units="px" showgrid="true" inkscape:zoom="12.71875" inkscape:cx="37.149877" inkscape:cy="32.235872" inkscape:window-width="1920" inkscape:window-height="1023" inkscape:window-x="0" inkscape:window-y="0" inkscape:window-maximized="1" inkscape:current-layer="layer1"><inkscape:grid type="xygrid" id="grid362" originx="0" originy="0"/></sodipodi:namedview><defs id="defs2"/><g inkscape:label="Calque 1" inkscape:groupmode="layer" id="layer1"><circle style="fill:#fff000;fill-opacity:1;stroke:none;stroke-width:2.11667;stroke-linecap:round;stroke-linejoin:round;stroke-opacity:1" id="path3743" cx="8.4666662" cy="8.4666662" r="8.4666662"/><path style="fill:none;fill-opacity:1;stroke:#006400;stroke-width:0;stroke-linecap:round;stroke-linejoin:round;stroke-dasharray:none;stroke-opacity:1" id="path5074" sodipodi:type="arc" sodipodi:cx="1.5119222" sodipodi:cy="-6.8806653" sodipodi:rx="2.9104166" sodipodi:ry="2.9104166" sodipodi:start="3.1415927" sodipodi:end="5.8817596" sodipodi:arc-type="arc" d="M-1.3984944-6.8806653A2.9104166 2.9104166.0 01.93167859-9.7326545 2.9104166 2.9104166.0 014.1909749-8.0178556" sodipodi:open="true" transform="scale(-1)"/><path id="path5099" style="fill:none;stroke:#0064de;stroke-width:1.05833;stroke-linecap:round;stroke-linejoin:round;stroke-opacity:1" transform="rotate(-90)" d="m-5.130055 6.3821566c.8763245-.1545196 1.7557206.2555496 2.2006422 1.0261764s.3603538 1.7372409-.2116264 2.4189003c-.5719803.6816597-1.5092242.9327927-2.3454033.6284487-.836179-.304344-1.3927238-1.0991727-1.3927239-1.9890157l-1e-7-7.1437497" sodipodi:nodetypes="cssscc"/><path style="fill:none;stroke:#0064de;stroke-width:1.05833;stroke-linecap:round;stroke-linejoin:miter;stroke-dasharray:none;stroke-opacity:1" d="M.5291667 8.9958332H14.28788c.889843.0 1.684672-.5565448 1.989016-1.3927239.304344-.8361791.05321-1.7734231-.628449-2.3454033C14.966788 4.6857259 14.000174 4.6011581 13.229547 5.0460795S12.04885 6.3703972 12.20337 7.2467218" id="path1001" sodipodi:nodetypes="ccsssc"/><path style="fill:none;stroke:#0064de;stroke-width:1.00012;stroke-linecap:round;stroke-linejoin:miter;stroke-dasharray:none;stroke-opacity:1" d="m2.1166666 11.1125 9.5249994-1e-6c.889843.0 1.684672.556545 1.989016 1.392724.304345.836179.05321 1.773423-.628448 2.345404-.68166.57198-1.648274.656548-2.418901.211626C9.8127064 14.617331 9.4026373 13.737935 9.5571568 12.861611" id="path1007" sodipodi:nodetypes="ccsssc"/><g id="g2405" transform="translate(0.79376745)"><path style="fill:#fff;fill-opacity:.699768;stroke:#c00100;stroke-width:.529167;stroke-linecap:round;stroke-linejoin:round;stroke-dasharray:none;stroke-opacity:1" d="m5.8208339 11.686612c1.0370819.643706 1.5427027 1.864382 1.2327619 3.021097-.3099409 1.156715-1.3581595 1.961041-2.5556786 1.961041s-2.2457378-.804326-2.5556787-1.961041c-.3099408-1.156715.1956801-2.377391 1.2327618-3.021097L3.175 1.5875c1e-7-.73062668.59229-1.32291665 1.3229167-1.32291665.7306267.0 1.3229166.59228997 1.3229165 1.32291665z" id="path1861" sodipodi:nodetypes="csssccscc"/><g id="g1893" style="fill:#c00100;fill-opacity:1;stroke:none;stroke-opacity:1"><path style="color:#000;fill:#c00100;fill-opacity:1;stroke:none;stroke-linecap:round;stroke-opacity:1;-inkscape-stroke:none" d="M4.4980469 1.0585937A.52916503.52916503.0 003.96875 1.5878906V13.757813a.52916503.52916503.0 00.5292969.529296.52916503.52916503.0 00.5292968-.529296V1.5878906a.52916503.52916503.0 00-.5292968-.5292969z" id="path1797"/><g id="path1875" transform="scale(-1)" style="fill:#c00100;fill-opacity:1;stroke:none;stroke-opacity:1"><path style="color:#000;fill:#c00100;fill-opacity:1;stroke:none;stroke-width:.529167;stroke-linecap:round;stroke-linejoin:round;stroke-opacity:1;-inkscape-stroke:none" d="m-2.9104172-14.022917a1.5875 1.5875.0 01-1.5875 1.5875 1.5875 1.5875.0 01-1.5875-1.5875 1.5875 1.5875.0 011.5875-1.5875 1.5875 1.5875.0 011.5875 1.5875z" id="path1881"/><path style="color:#000;fill:#c00100;fill-opacity:1;stroke:none;stroke-linecap:round;stroke-linejoin:round;stroke-opacity:1;-inkscape-stroke:none" d="m-4.4980469-15.875c-1.0197425.0-1.8515625.83182-1.8515625 1.851562.0 1.019743.83182 1.853516 1.8515625 1.853516 1.0197426.0 1.8515625-.833773 1.8515625-1.853516.0-1.019742-.8318199-1.851562-1.8515625-1.851562zm0 .529297c.7337598.0 1.3222656.588506 1.3222656 1.322265.0.73376-.5885058 1.324219-1.3222656 1.324219-.7337597.0-1.3222656-.590459-1.3222656-1.324219.0-.733759.5885059-1.322265 1.3222656-1.322265z" id="path1883"/></g></g><path style="fill:none;stroke:#c00000;stroke-width:.529167;stroke-linecap:round;stroke-linejoin:miter;stroke-dasharray:none;stroke-opacity:1" d="m6.6145832 10.583333h1.5875" id="path2378"/><path style="fill:none;stroke:#c00000;stroke-width:.529167;stroke-linecap:round;stroke-linejoin:miter;stroke-dasharray:none;stroke-opacity:1" d="M6.6145832 9.0840276H7.6729165" id="path2380" sodipodi:nodetypes="cc"/><path style="fill:none;stroke:#c00000;stroke-width:.529167;stroke-linecap:round;stroke-linejoin:miter;stroke-dasharray:none;stroke-opacity:1" d="m6.6145832 7.5847221h1.5875" id="path2382"/><path style="fill:none;stroke:#c00000;stroke-width:.529167;stroke-linecap:round;stroke-linejoin:miter;stroke-dasharray:none;stroke-opacity:1" d="M6.6145832 6.0854166H7.6729165" id="path2384" sodipodi:nodetypes="cc"/><path style="fill:none;stroke:#c00000;stroke-width:.529167;stroke-linecap:round;stroke-linejoin:miter;stroke-dasharray:none;stroke-opacity:1" d="m6.6145832 4.5861111h1.5875" id="path2386"/><path style="fill:none;stroke:#c00000;stroke-width:.529167;stroke-linecap:round;stroke-linejoin:miter;stroke-dasharray:none;stroke-opacity:1" d="M6.6145832 3.0868055H7.6729165" id="path2388" sodipodi:nodetypes="cc"/><path style="fill:none;stroke:#c00000;stroke-width:.529167;stroke-linecap:round;stroke-linejoin:miter;stroke-dasharray:none;stroke-opacity:1" d="m6.6145832 1.5875h1.5875" id="path2390"/></g></g></svg>