<svg width="24" height="24" viewBox="0 0 6.3499999 6.35" id="svg5" inkscape:version="1.2.2 (b0a8486541, 2022-12-01)" sodipodi:docname="refresh.svg" xmlns:inkscape="http://www.inkscape.org/namespaces/inkscape" xmlns:sodipodi="http://sodipodi.sourceforge.net/DTD/sodipodi-0.dtd" xmlns="http://www.w3.org/2000/svg" xmlns:svg="http://www.w3.org/2000/svg"><sodipodi:namedview id="namedview7" pagecolor="#ffffff" bordercolor="#000000" borderopacity=".25" inkscape:showpageshadow="2" inkscape:pageopacity="0" inkscape:pagecheckerboard="0" inkscape:deskcolor="#d1d1d1" inkscape:document-units="px" showgrid="true" inkscape:zoom="23.982705" inkscape:cx="13.405494" inkscape:cy="13.301252" inkscape:window-width="1920" inkscape:window-height="1023" inkscape:window-x="0" inkscape:window-y="0" inkscape:window-maximized="1" inkscape:current-layer="layer1"><inkscape:grid type="xygrid" id="grid362"/></sodipodi:namedview><defs id="defs2"/><g inkscape:label="Calque 1" inkscape:groupmode="layer" id="layer1"><path id="path1003" style="color:#000;fill:#7fff00;stroke-linecap:round;-inkscape-stroke:none;fill-opacity:1" d="M3.1424438.0C3.0796055.00064678522 3.0165823.0033268991 2.9533081.0077514648 1.6034579.1021422.45770697 1.0463057.10748698 2.3533447a.52916503.52916503.0 00.37517089.6485392.52916503.52916503.0 00.64802243-.3751709c.2343219-.8745012.9933802-1.5010915 1.8965251-1.5642456.7067182-.0494185 1.3740651.2549766 1.8004069.7890992H4.2322998a.52916503.52916503.0 00-.5270996.5291666.52916503.52916503.0 00.5270996.5291667H5.8203165A.52916503.52916503.0 005.83892 2.9098999.52916503.52916503.0 005.8570068 2.9088664.52916503.52916503.0 005.8756103 2.9073161.52916503.52916503.0 005.8942138 2.905249.52916503.52916503.0 005.9303873 2.8985311.52916503.52916503.0 005.9484741 2.8943969.52916503.52916503.0 005.9841308 2.8840617.52916503.52916503.0 006.001184 2.8783773.52916503.52916503.0 006.0358072 2.8644246.52916503.52916503.0 006.0523437 2.8566732.52916503.52916503.0 006.0848999 2.8391032.52916503.52916503.0 006.1009195 2.8298014.52916503.52916503.0 006.1314086 2.8091308.52916503.52916503.0 006.1463948 2.797762.52916503.52916503.0 006.1743001 2.7739909.52916503.52916503.0 006.1882527 2.7615885.52916503.52916503.0 006.2135742 2.7352335.52916503.52916503.0 006.2259765 2.7212809.52916503.52916503.0 006.2487141 2.6918253.52916503.52916503.0 006.2590494 2.6768392.52916503.52916503.0 006.2786865 2.6453165.52916503.52916503.0 006.2874715 2.6292969.52916503.52916503.0 006.3040079 2.5962239.52916503.52916503.0 006.3112426 2.5791707.52916503.52916503.0 006.323645 2.5445475.52916503.52916503.0 006.3293294 2.5269775.52916503.52916503.0 006.3381144 2.490804.52916503.52916503.0 006.3417317 2.4727173.52916503.52916503.0 006.3468994 2.436027.52916503.52916503.0 006.3484497 2.4179402.52916503.52916503.0 006.3494832 2.3807332.52916503.52916503.0 006.3494832 2.3621297V.79271647A.52916503.52916503.0 005.8203165.2635498.52916503.52916503.0 005.2911499.79271647V.80821939C4.7103268.28992545 3.9470297-.0082814847 3.1424438.0z"/><path style="fill:none;fill-opacity:1;stroke:#006400;stroke-width:0;stroke-linecap:round;stroke-linejoin:round;stroke-dasharray:none;stroke-opacity:1" id="path5074" sodipodi:type="arc" sodipodi:cx="-3.175" sodipodi:cy="-3.175" sodipodi:rx="2.9104166" sodipodi:ry="2.9104166" sodipodi:start="3.1415927" sodipodi:end="5.8817596" sodipodi:arc-type="arc" d="m-6.0854166-3.175a2.9104166 2.9104166.0 012.330173-2.8519891 2.9104166 2.9104166.0 013.25929628 1.7147988" sodipodi:open="true" transform="scale(-1)"/><path id="path5095" style="color:#000;fill:#7fff00;stroke-linecap:round;-inkscape-stroke:none;fill-opacity:1" d="M5.7024943 3.3320963a.52916503.52916503.0 00-.4836914.3906739c-.2378767.8877678-1.0159068 1.5182115-1.9337321 1.5663126C2.5896573 5.3255277 1.9398434 5.0207683 1.5223877 4.4979166h.5947957A.52916503.52916503.0 002.6463501 3.96875.52916503.52916503.0 002.1171834 3.4395833H.54777018a.52916503.52916503.0 00-.01860352.0A.52916503.52916503.0 000 3.96875V5.5567667a.52916503.52916503.0 00.52916666.5291667.52916503.52916503.0 00.52968344-.5291667V5.5402303c.6116688.54641 1.427018.8504991 2.2830647.8056355C4.7134322 6.2739879 5.8865344 5.3227405 6.2419962 3.9961385a.52916503.52916503.0 00-.3746541-.6464722A.52916503.52916503.0 005.7024943 3.3320963z"/></g></svg>