<?xml version="1.0" encoding="UTF-8" standalone="no"?>
<svg
   id="Layer_1"
   viewBox="0 0 48 48"
   sodipodi:docname="chrono.svg"
   inkscape:version="1.2.2 (b0a8486541, 2022-12-01)"
   version="1.1"
   width="48"
   height="48"
   xmlns:inkscape="http://www.inkscape.org/namespaces/inkscape"
   xmlns:sodipodi="http://sodipodi.sourceforge.net/DTD/sodipodi-0.dtd"
   xmlns="http://www.w3.org/2000/svg"
   xmlns:svg="http://www.w3.org/2000/svg">
  <defs
     id="defs8925" />
  <sodipodi:namedview
     id="namedview8923"
     pagecolor="#ffffff"
     bordercolor="#000000"
     borderopacity=".25"
     inkscape:showpageshadow="2"
     inkscape:pageopacity="0"
     inkscape:pagecheckerboard="0"
     inkscape:deskcolor="#d1d1d1"
     showgrid="true"
     inkscape:zoom="16.958333"
     inkscape:cx="23.970516"
     inkscape:cy="24"
     inkscape:window-width="1920"
     inkscape:window-height="1023"
     inkscape:window-x="0"
     inkscape:window-y="0"
     inkscape:window-maximized="1"
     inkscape:current-layer="Layer_1"
     inkscape:document-rotation="0">
    <inkscape:grid
       type="xygrid"
       id="grid9044"
       originx="0"
       originy="0" />
  </sodipodi:namedview>
  <path
     id="path1686"
     style="color:#000000;fill:#000064;-inkscape-stroke:none;fill-opacity:1"
     d="M 19 0 A 1.5 1.5 0 0 0 17.5 1.5 A 1.5 1.5 0 0 0 19 3 L 22.5 3 L 22.5 7 L 25.5 7 L 25.5 3 L 29 3 A 1.5 1.5 0 0 0 30.5 1.5 A 1.5 1.5 0 0 0 29 0 L 19 0 z " />
  <path
     id="path1701"
     style="color:#000000;fill:#000064;-inkscape-stroke:none;fill-opacity:1"
     d="m 39.414214,4.5147186 a 1.5,1.5 0 0 0 -2.121321,0 1.5,1.5 0 0 0 0,2.1213203 l 2.474874,2.4748738 -2.828427,2.8284273 2.12132,2.12132 2.828428,-2.828427 2.474873,2.474874 a 1.5,1.5 0 0 0 2.121321,0 1.5,1.5 0 0 0 0,-2.121321 z" />
  <circle
     style="fill:#00c37f;fill-opacity:1;stroke:#000064;stroke-width:3;stroke-linecap:round;stroke-linejoin:round;stroke-dasharray:none;stroke-opacity:1"
     id="path1628"
     cx="24"
     cy="26.499998"
     r="20" />
  <circle
     style="fill:#47ffa8;fill-opacity:1;stroke:none;stroke-width:3;stroke-linecap:round;stroke-linejoin:round;stroke-dasharray:none;stroke-opacity:1"
     id="path9895"
     cx="24"
     cy="26.499998"
     r="15.5" />
  <path
     style="fill:#47ffa8;fill-opacity:1;stroke:#000064;stroke-width:3;stroke-linecap:round;stroke-linejoin:round;stroke-dasharray:none;stroke-opacity:1"
     id="path6789"
     sodipodi:type="arc"
     sodipodi:cx="24"
     sodipodi:cy="26.499998"
     sodipodi:rx="14"
     sodipodi:ry="14"
     sodipodi:start="5.0614548"
     sodipodi:end="4.3633231"
     sodipodi:arc-type="arc"
     d="M 28.788282,13.344301 A 14,14 0 0 1 37.787309,28.931072 14,14 0 0 1 24,40.499998 14,14 0 0 1 10.212692,28.931073 14,14 0 0 1 19.211718,13.344302"
     sodipodi:open="true" />
  <circle
     style="fill:#fff000;stroke:#000064;stroke-width:2;stroke-linecap:round;stroke-linejoin:round;stroke-dasharray:none;stroke-opacity:1"
     id="path1690"
     cx="24"
     cy="27"
     r="2" />
  <path
     style="fill:none;stroke:#000064;stroke-width:3;stroke-linecap:round;stroke-linejoin:round;stroke-dasharray:none;stroke-opacity:1"
     d="M 24,12.5 V 27 h 9"
     id="path1688"
     sodipodi:nodetypes="ccc" />
</svg>
