<?xml version="1.0" encoding="UTF-8" standalone="no"?>
<!-- Created with Inkscape (http://www.inkscape.org/) -->

<svg
   width="64"
   height="64"
   viewBox="0 0 16.933333 16.933333"
   version="1.1"
   id="svg5"
   inkscape:version="1.2.2 (b0a8486541, 2022-12-01)"
   sodipodi:docname="favicon.svg"
   xmlns:inkscape="http://www.inkscape.org/namespaces/inkscape"
   xmlns:sodipodi="http://sodipodi.sourceforge.net/DTD/sodipodi-0.dtd"
   xmlns="http://www.w3.org/2000/svg"
   xmlns:svg="http://www.w3.org/2000/svg">
  <sodipodi:namedview
     id="namedview7"
     pagecolor="#ffffff"
     bordercolor="#000000"
     borderopacity="0.25"
     inkscape:showpageshadow="2"
     inkscape:pageopacity="0.0"
     inkscape:pagecheckerboard="0"
     inkscape:deskcolor="#d1d1d1"
     inkscape:document-units="px"
     showgrid="true"
     inkscape:zoom="12.71875"
     inkscape:cx="37.149877"
     inkscape:cy="32.235872"
     inkscape:window-width="1920"
     inkscape:window-height="1023"
     inkscape:window-x="0"
     inkscape:window-y="0"
     inkscape:window-maximized="1"
     inkscape:current-layer="layer1">
    <inkscape:grid
       type="xygrid"
       id="grid362"
       originx="0"
       originy="0" />
  </sodipodi:namedview>
  <defs
     id="defs2" />
  <g
     inkscape:label="Calque 1"
     inkscape:groupmode="layer"
     id="layer1">
    <circle
       style="fill:#fff000;fill-opacity:1;stroke:none;stroke-width:2.11667;stroke-linecap:round;stroke-linejoin:round;stroke-opacity:1"
       id="path3743"
       cx="8.4666662"
       cy="8.4666662"
       r="8.4666662" />
    <path
       style="fill:none;fill-opacity:1;stroke:#006400;stroke-width:0;stroke-linecap:round;stroke-linejoin:round;stroke-dasharray:none;stroke-opacity:1"
       id="path5074"
       sodipodi:type="arc"
       sodipodi:cx="1.5119222"
       sodipodi:cy="-6.8806653"
       sodipodi:rx="2.9104166"
       sodipodi:ry="2.9104166"
       sodipodi:start="3.1415927"
       sodipodi:end="5.8817596"
       sodipodi:arc-type="arc"
       d="M -1.3984944,-6.8806653 A 2.9104166,2.9104166 0 0 1 0.93167859,-9.7326545 2.9104166,2.9104166 0 0 1 4.1909749,-8.0178556"
       sodipodi:open="true"
       transform="scale(-1)" />
    <path
       id="path5099"
       style="fill:none;stroke:#0064de;stroke-width:1.05833;stroke-linecap:round;stroke-linejoin:round;stroke-opacity:1"
       transform="rotate(-90)"
       d="m -5.130055,6.3821566 c 0.8763245,-0.1545196 1.7557206,0.2555496 2.2006422,1.0261764 0.4449216,0.7706268 0.3603538,1.7372409 -0.2116264,2.4189003 -0.5719803,0.6816597 -1.5092242,0.9327927 -2.3454033,0.6284487 -0.836179,-0.304344 -1.3927238,-1.0991727 -1.3927239,-1.9890157 l -1e-7,-7.1437497"
       sodipodi:nodetypes="cssscc" />
    <path
       style="fill:none;stroke:#0064de;stroke-width:1.05833;stroke-linecap:round;stroke-linejoin:miter;stroke-dasharray:none;stroke-opacity:1"
       d="M 0.5291667,8.9958332 H 14.28788 c 0.889843,0 1.684672,-0.5565448 1.989016,-1.3927239 C 16.58124,6.7669302 16.330106,5.8296862 15.648447,5.257706 14.966788,4.6857259 14.000174,4.6011581 13.229547,5.0460795 12.45892,5.4910009 12.04885,6.3703972 12.20337,7.2467218"
       id="path1001"
       sodipodi:nodetypes="ccsssc" />
    <path
       style="fill:none;stroke:#0064de;stroke-width:1.00012;stroke-linecap:round;stroke-linejoin:miter;stroke-dasharray:none;stroke-opacity:1"
       d="m 2.1166666,11.1125 9.5249994,-1e-6 c 0.889843,0 1.684672,0.556545 1.989016,1.392724 0.304345,0.836179 0.05321,1.773423 -0.628448,2.345404 -0.68166,0.57198 -1.648274,0.656548 -2.418901,0.211626 C 9.8127064,14.617331 9.4026373,13.737935 9.5571568,12.861611"
       id="path1007"
       sodipodi:nodetypes="ccsssc" />
    <g
       id="g2405"
       transform="translate(0.79376745)">
      <path
         style="fill:#ffffff;fill-opacity:0.699768;stroke:#c00100;stroke-width:0.529167;stroke-linecap:round;stroke-linejoin:round;stroke-dasharray:none;stroke-opacity:1"
         d="m 5.8208339,11.686612 c 1.0370819,0.643706 1.5427027,1.864382 1.2327619,3.021097 -0.3099409,1.156715 -1.3581595,1.961041 -2.5556786,1.961041 -1.1975191,0 -2.2457378,-0.804326 -2.5556787,-1.961041 -0.3099408,-1.156715 0.1956801,-2.377391 1.2327618,-3.021097 L 3.175,1.5875 c 1e-7,-0.73062668 0.59229,-1.32291665 1.3229167,-1.32291665 0.7306267,0 1.3229166,0.59228997 1.3229165,1.32291665 z"
         id="path1861"
         sodipodi:nodetypes="csssccscc" />
      <g
         id="g1893"
         style="fill:#c00100;fill-opacity:1;stroke:none;stroke-opacity:1">
        <path
           style="color:#000000;fill:#c00100;fill-opacity:1;stroke:none;stroke-linecap:round;stroke-opacity:1;-inkscape-stroke:none"
           d="M 4.4980469,1.0585937 A 0.52916503,0.52916503 0 0 0 3.96875,1.5878906 V 13.757813 a 0.52916503,0.52916503 0 0 0 0.5292969,0.529296 0.52916503,0.52916503 0 0 0 0.5292968,-0.529296 V 1.5878906 A 0.52916503,0.52916503 0 0 0 4.4980469,1.0585937 Z"
           id="path1797" />
        <g
           id="path1875"
           transform="scale(-1)"
           style="fill:#c00100;fill-opacity:1;stroke:none;stroke-opacity:1">
          <path
             style="color:#000000;fill:#c00100;fill-opacity:1;stroke:none;stroke-width:0.529167;stroke-linecap:round;stroke-linejoin:round;stroke-opacity:1;-inkscape-stroke:none"
             d="m -2.9104172,-14.022917 a 1.5875,1.5875 0 0 1 -1.5875,1.5875 1.5875,1.5875 0 0 1 -1.5875,-1.5875 1.5875,1.5875 0 0 1 1.5875,-1.5875 1.5875,1.5875 0 0 1 1.5875,1.5875 z"
             id="path1881" />
          <path
             style="color:#000000;fill:#c00100;fill-opacity:1;stroke:none;stroke-linecap:round;stroke-linejoin:round;stroke-opacity:1;-inkscape-stroke:none"
             d="m -4.4980469,-15.875 c -1.0197425,0 -1.8515625,0.83182 -1.8515625,1.851562 0,1.019743 0.83182,1.853516 1.8515625,1.853516 1.0197426,0 1.8515625,-0.833773 1.8515625,-1.853516 0,-1.019742 -0.8318199,-1.851562 -1.8515625,-1.851562 z m 0,0.529297 c 0.7337598,0 1.3222656,0.588506 1.3222656,1.322265 0,0.73376 -0.5885058,1.324219 -1.3222656,1.324219 -0.7337597,0 -1.3222656,-0.590459 -1.3222656,-1.324219 0,-0.733759 0.5885059,-1.322265 1.3222656,-1.322265 z"
             id="path1883" />
        </g>
      </g>
      <path
         style="fill:none;stroke:#c00000;stroke-width:0.529167;stroke-linecap:round;stroke-linejoin:miter;stroke-dasharray:none;stroke-opacity:1"
         d="m 6.6145832,10.583333 h 1.5875"
         id="path2378" />
      <path
         style="fill:none;stroke:#c00000;stroke-width:0.529167;stroke-linecap:round;stroke-linejoin:miter;stroke-dasharray:none;stroke-opacity:1"
         d="M 6.6145832,9.0840276 H 7.6729165"
         id="path2380"
         sodipodi:nodetypes="cc" />
      <path
         style="fill:none;stroke:#c00000;stroke-width:0.529167;stroke-linecap:round;stroke-linejoin:miter;stroke-dasharray:none;stroke-opacity:1"
         d="m 6.6145832,7.5847221 h 1.5875"
         id="path2382" />
      <path
         style="fill:none;stroke:#c00000;stroke-width:0.529167;stroke-linecap:round;stroke-linejoin:miter;stroke-dasharray:none;stroke-opacity:1"
         d="M 6.6145832,6.0854166 H 7.6729165"
         id="path2384"
         sodipodi:nodetypes="cc" />
      <path
         style="fill:none;stroke:#c00000;stroke-width:0.529167;stroke-linecap:round;stroke-linejoin:miter;stroke-dasharray:none;stroke-opacity:1"
         d="m 6.6145832,4.5861111 h 1.5875"
         id="path2386" />
      <path
         style="fill:none;stroke:#c00000;stroke-width:0.529167;stroke-linecap:round;stroke-linejoin:miter;stroke-dasharray:none;stroke-opacity:1"
         d="M 6.6145832,3.0868055 H 7.6729165"
         id="path2388"
         sodipodi:nodetypes="cc" />
      <path
         style="fill:none;stroke:#c00000;stroke-width:0.529167;stroke-linecap:round;stroke-linejoin:miter;stroke-dasharray:none;stroke-opacity:1"
         d="m 6.6145832,1.5875 h 1.5875"
         id="path2390" />
    </g>
  </g>
</svg>
