<?xml version="1.0" encoding="UTF-8" standalone="no"?>
<!-- Created with Inkscape (http://www.inkscape.org/) -->

<svg
   width="24"
   height="24"
   viewBox="0 0 6.3499999 6.35"
   version="1.1"
   id="svg5"
   inkscape:version="1.2.2 (b0a8486541, 2022-12-01)"
   sodipodi:docname="refresh.svg"
   xmlns:inkscape="http://www.inkscape.org/namespaces/inkscape"
   xmlns:sodipodi="http://sodipodi.sourceforge.net/DTD/sodipodi-0.dtd"
   xmlns="http://www.w3.org/2000/svg"
   xmlns:svg="http://www.w3.org/2000/svg">
  <sodipodi:namedview
     id="namedview7"
     pagecolor="#ffffff"
     bordercolor="#000000"
     borderopacity="0.25"
     inkscape:showpageshadow="2"
     inkscape:pageopacity="0.0"
     inkscape:pagecheckerboard="0"
     inkscape:deskcolor="#d1d1d1"
     inkscape:document-units="px"
     showgrid="true"
     inkscape:zoom="23.982705"
     inkscape:cx="13.405494"
     inkscape:cy="13.301252"
     inkscape:window-width="1920"
     inkscape:window-height="1023"
     inkscape:window-x="0"
     inkscape:window-y="0"
     inkscape:window-maximized="1"
     inkscape:current-layer="layer1">
    <inkscape:grid
       type="xygrid"
       id="grid362" />
  </sodipodi:namedview>
  <defs
     id="defs2" />
  <g
     inkscape:label="Calque 1"
     inkscape:groupmode="layer"
     id="layer1">
    <path
       id="path1003"
       style="color:#000000;fill:#7fff00;stroke-linecap:round;-inkscape-stroke:none;fill-opacity:1"
       d="M 3.1424438 0 C 3.0796055 0.00064678522 3.0165823 0.0033268991 2.9533081 0.0077514648 C 1.6034579 0.1021422 0.45770697 1.0463057 0.10748698 2.3533447 A 0.52916503 0.52916503 0 0 0 0.48265787 3.0018839 A 0.52916503 0.52916503 0 0 0 1.1306803 2.626713 C 1.3650022 1.7522118 2.1240605 1.1256215 3.0272054 1.0624674 C 3.7339236 1.0130489 4.4012705 1.317444 4.8276123 1.8515666 L 4.2322998 1.8515666 A 0.52916503 0.52916503 0 0 0 3.7052002 2.3807332 A 0.52916503 0.52916503 0 0 0 4.2322998 2.9098999 L 5.8203165 2.9098999 A 0.52916503 0.52916503 0 0 0 5.83892 2.9098999 A 0.52916503 0.52916503 0 0 0 5.8570068 2.9088664 A 0.52916503 0.52916503 0 0 0 5.8756103 2.9073161 A 0.52916503 0.52916503 0 0 0 5.8942138 2.905249 A 0.52916503 0.52916503 0 0 0 5.9303873 2.8985311 A 0.52916503 0.52916503 0 0 0 5.9484741 2.8943969 A 0.52916503 0.52916503 0 0 0 5.9841308 2.8840617 A 0.52916503 0.52916503 0 0 0 6.001184 2.8783773 A 0.52916503 0.52916503 0 0 0 6.0358072 2.8644246 A 0.52916503 0.52916503 0 0 0 6.0523437 2.8566732 A 0.52916503 0.52916503 0 0 0 6.0848999 2.8391032 A 0.52916503 0.52916503 0 0 0 6.1009195 2.8298014 A 0.52916503 0.52916503 0 0 0 6.1314086 2.8091308 A 0.52916503 0.52916503 0 0 0 6.1463948 2.797762 A 0.52916503 0.52916503 0 0 0 6.1743001 2.7739909 A 0.52916503 0.52916503 0 0 0 6.1882527 2.7615885 A 0.52916503 0.52916503 0 0 0 6.2135742 2.7352335 A 0.52916503 0.52916503 0 0 0 6.2259765 2.7212809 A 0.52916503 0.52916503 0 0 0 6.2487141 2.6918253 A 0.52916503 0.52916503 0 0 0 6.2590494 2.6768392 A 0.52916503 0.52916503 0 0 0 6.2786865 2.6453165 A 0.52916503 0.52916503 0 0 0 6.2874715 2.6292969 A 0.52916503 0.52916503 0 0 0 6.3040079 2.5962239 A 0.52916503 0.52916503 0 0 0 6.3112426 2.5791707 A 0.52916503 0.52916503 0 0 0 6.323645 2.5445475 A 0.52916503 0.52916503 0 0 0 6.3293294 2.5269775 A 0.52916503 0.52916503 0 0 0 6.3381144 2.490804 A 0.52916503 0.52916503 0 0 0 6.3417317 2.4727173 A 0.52916503 0.52916503 0 0 0 6.3468994 2.436027 A 0.52916503 0.52916503 0 0 0 6.3484497 2.4179402 A 0.52916503 0.52916503 0 0 0 6.3494832 2.3807332 A 0.52916503 0.52916503 0 0 0 6.3494832 2.3621297 L 6.3494832 0.79271647 A 0.52916503 0.52916503 0 0 0 5.8203165 0.2635498 A 0.52916503 0.52916503 0 0 0 5.2911499 0.79271647 L 5.2911499 0.80821939 C 4.7103268 0.28992545 3.9470297 -0.0082814847 3.1424438 0 z " />
    <path
       style="fill:none;fill-opacity:1;stroke:#006400;stroke-width:0;stroke-linecap:round;stroke-linejoin:round;stroke-dasharray:none;stroke-opacity:1"
       id="path5074"
       sodipodi:type="arc"
       sodipodi:cx="-3.175"
       sodipodi:cy="-3.175"
       sodipodi:rx="2.9104166"
       sodipodi:ry="2.9104166"
       sodipodi:start="3.1415927"
       sodipodi:end="5.8817596"
       sodipodi:arc-type="arc"
       d="m -6.0854166,-3.175 a 2.9104166,2.9104166 0 0 1 2.330173,-2.8519891 2.9104166,2.9104166 0 0 1 3.25929628,1.7147988"
       sodipodi:open="true"
       transform="scale(-1)" />
    <path
       id="path5095"
       style="color:#000000;fill:#7fff00;stroke-linecap:round;-inkscape-stroke:none;fill-opacity:1"
       d="M 5.7024943 3.3320963 A 0.52916503 0.52916503 0 0 0 5.2188029 3.7227702 C 4.9809262 4.610538 4.2028961 5.2409817 3.2850708 5.2890828 C 2.5896573 5.3255277 1.9398434 5.0207683 1.5223877 4.4979166 L 2.1171834 4.4979166 A 0.52916503 0.52916503 0 0 0 2.6463501 3.96875 A 0.52916503 0.52916503 0 0 0 2.1171834 3.4395833 L 0.54777018 3.4395833 A 0.52916503 0.52916503 0 0 0 0.52916666 3.4395833 A 0.52916503 0.52916503 0 0 0 0 3.96875 L 0 5.5567667 A 0.52916503 0.52916503 0 0 0 0.52916666 6.0859334 A 0.52916503 0.52916503 0 0 0 1.0588501 5.5567667 L 1.0588501 5.5402303 C 1.6705189 6.0866403 2.4858681 6.3907294 3.3419148 6.3458658 C 4.7134322 6.2739879 5.8865344 5.3227405 6.2419962 3.9961385 A 0.52916503 0.52916503 0 0 0 5.8673421 3.3496663 A 0.52916503 0.52916503 0 0 0 5.7024943 3.3320963 z " />
  </g>
</svg>
